<mxfile host="app.diagrams.net" modified="2024-05-13T14:57:21.424Z" agent="Mozilla/5.0 (Windows NT 10.0; Win64; x64) AppleWebKit/537.36 (KHTML, like Gecko) Chrome/124.0.0.0 Safari/537.36" etag="fxDFVmmunMtMJtizDMhr" version="24.4.0" type="github">
  <diagram name="Page-1" id="8wrbGp4el5WIoJ6fjSWn">
    <mxGraphModel dx="1914" dy="1008" grid="1" gridSize="10" guides="1" tooltips="1" connect="1" arrows="1" fold="1" page="1" pageScale="1" pageWidth="850" pageHeight="1100" math="0" shadow="0">
      <root>
        <mxCell id="0" />
        <mxCell id="1" parent="0" />
        <mxCell id="L_xJVtzbBdB4aBmsJh9X-1" value="" style="rounded=0;whiteSpace=wrap;html=1;fillColor=#7EA6E0;" vertex="1" parent="1">
          <mxGeometry x="260" y="270" width="240" height="1440" as="geometry" />
        </mxCell>
        <mxCell id="L_xJVtzbBdB4aBmsJh9X-6" value="Kelola Kategori&lt;div&gt;Produk&lt;/div&gt;" style="ellipse;whiteSpace=wrap;html=1;" vertex="1" parent="1">
          <mxGeometry x="307.5" y="320" width="145" height="60" as="geometry" />
        </mxCell>
        <mxCell id="L_xJVtzbBdB4aBmsJh9X-7" value="Kelola data pelanggan" style="ellipse;whiteSpace=wrap;html=1;" vertex="1" parent="1">
          <mxGeometry x="303.75" y="400" width="145" height="60" as="geometry" />
        </mxCell>
        <mxCell id="L_xJVtzbBdB4aBmsJh9X-8" value="Kelola &lt;i&gt;inventory&lt;/i&gt;&amp;nbsp;masuk" style="ellipse;whiteSpace=wrap;html=1;" vertex="1" parent="1">
          <mxGeometry x="311.25" y="710" width="145" height="60" as="geometry" />
        </mxCell>
        <mxCell id="L_xJVtzbBdB4aBmsJh9X-9" value="Kelola Penjualan" style="ellipse;whiteSpace=wrap;html=1;" vertex="1" parent="1">
          <mxGeometry x="311.25" y="640" width="145" height="60" as="geometry" />
        </mxCell>
        <mxCell id="L_xJVtzbBdB4aBmsJh9X-10" value="Kelola Pengiriman" style="ellipse;whiteSpace=wrap;html=1;" vertex="1" parent="1">
          <mxGeometry x="308.75" y="780" width="145" height="60" as="geometry" />
        </mxCell>
        <mxCell id="L_xJVtzbBdB4aBmsJh9X-11" value="Cetak Laporan" style="ellipse;whiteSpace=wrap;html=1;" vertex="1" parent="1">
          <mxGeometry x="311.25" y="1000" width="145" height="60" as="geometry" />
        </mxCell>
        <mxCell id="L_xJVtzbBdB4aBmsJh9X-12" value="Ubah Profil" style="ellipse;whiteSpace=wrap;html=1;" vertex="1" parent="1">
          <mxGeometry x="311.25" y="1080" width="145" height="60" as="geometry" />
        </mxCell>
        <mxCell id="L_xJVtzbBdB4aBmsJh9X-17" value="Tambah User" style="ellipse;whiteSpace=wrap;html=1;" vertex="1" parent="1">
          <mxGeometry x="311.25" y="1160" width="145" height="60" as="geometry" />
        </mxCell>
        <mxCell id="L_xJVtzbBdB4aBmsJh9X-18" value="RBAC" style="ellipse;whiteSpace=wrap;html=1;" vertex="1" parent="1">
          <mxGeometry x="311.25" y="1240" width="145" height="60" as="geometry" />
        </mxCell>
        <mxCell id="L_xJVtzbBdB4aBmsJh9X-19" value="Kelola data &lt;i&gt;promo&lt;/i&gt;" style="ellipse;whiteSpace=wrap;html=1;" vertex="1" parent="1">
          <mxGeometry x="303.75" y="480" width="145" height="60" as="geometry" />
        </mxCell>
        <mxCell id="L_xJVtzbBdB4aBmsJh9X-20" value="&lt;font style=&quot;font-size: 16px;&quot;&gt;System&lt;/font&gt;" style="text;html=1;align=center;verticalAlign=middle;whiteSpace=wrap;rounded=0;fontStyle=1" vertex="1" parent="1">
          <mxGeometry x="346.25" y="280" width="60" height="30" as="geometry" />
        </mxCell>
        <mxCell id="L_xJVtzbBdB4aBmsJh9X-21" value="Kelola Produk" style="ellipse;whiteSpace=wrap;html=1;" vertex="1" parent="1">
          <mxGeometry x="308.75" y="560" width="145" height="60" as="geometry" />
        </mxCell>
        <mxCell id="L_xJVtzbBdB4aBmsJh9X-23" value="Kelola Biaya" style="ellipse;whiteSpace=wrap;html=1;" vertex="1" parent="1">
          <mxGeometry x="308.75" y="850" width="145" height="60" as="geometry" />
        </mxCell>
        <mxCell id="L_xJVtzbBdB4aBmsJh9X-24" value="Kelola Alamat" style="ellipse;whiteSpace=wrap;html=1;" vertex="1" parent="1">
          <mxGeometry x="311.25" y="930" width="145" height="60" as="geometry" />
        </mxCell>
        <mxCell id="L_xJVtzbBdB4aBmsJh9X-30" style="rounded=0;orthogonalLoop=1;jettySize=auto;html=1;exitX=1;exitY=0.3333333333333333;exitDx=0;exitDy=0;exitPerimeter=0;entryX=0;entryY=0.5;entryDx=0;entryDy=0;endArrow=none;endFill=0;" edge="1" parent="1" source="L_xJVtzbBdB4aBmsJh9X-31" target="L_xJVtzbBdB4aBmsJh9X-6">
          <mxGeometry relative="1" as="geometry" />
        </mxCell>
        <mxCell id="L_xJVtzbBdB4aBmsJh9X-31" value="Client" style="shape=umlActor;verticalLabelPosition=bottom;verticalAlign=top;html=1;outlineConnect=0;fillColor=#7EA6E0;" vertex="1" parent="1">
          <mxGeometry x="90" y="520" width="60" height="100" as="geometry" />
        </mxCell>
        <mxCell id="L_xJVtzbBdB4aBmsJh9X-32" style="rounded=0;orthogonalLoop=1;jettySize=auto;html=1;exitX=1;exitY=0.3333333333333333;exitDx=0;exitDy=0;exitPerimeter=0;entryX=0;entryY=0.5;entryDx=0;entryDy=0;endArrow=none;endFill=0;" edge="1" parent="1" source="L_xJVtzbBdB4aBmsJh9X-31" target="L_xJVtzbBdB4aBmsJh9X-7">
          <mxGeometry relative="1" as="geometry">
            <mxPoint x="160" y="563" as="sourcePoint" />
            <mxPoint x="318" y="360" as="targetPoint" />
          </mxGeometry>
        </mxCell>
        <mxCell id="L_xJVtzbBdB4aBmsJh9X-33" style="rounded=0;orthogonalLoop=1;jettySize=auto;html=1;exitX=1;exitY=0.3333333333333333;exitDx=0;exitDy=0;exitPerimeter=0;entryX=0;entryY=0.5;entryDx=0;entryDy=0;endArrow=none;endFill=0;" edge="1" parent="1" source="L_xJVtzbBdB4aBmsJh9X-31" target="L_xJVtzbBdB4aBmsJh9X-19">
          <mxGeometry relative="1" as="geometry">
            <mxPoint x="160" y="563" as="sourcePoint" />
            <mxPoint x="314" y="440" as="targetPoint" />
          </mxGeometry>
        </mxCell>
        <mxCell id="L_xJVtzbBdB4aBmsJh9X-34" style="rounded=0;orthogonalLoop=1;jettySize=auto;html=1;exitX=1;exitY=0.3333333333333333;exitDx=0;exitDy=0;exitPerimeter=0;entryX=0;entryY=0.5;entryDx=0;entryDy=0;endArrow=none;endFill=0;" edge="1" parent="1" source="L_xJVtzbBdB4aBmsJh9X-31" target="L_xJVtzbBdB4aBmsJh9X-21">
          <mxGeometry relative="1" as="geometry">
            <mxPoint x="160" y="563" as="sourcePoint" />
            <mxPoint x="314" y="520" as="targetPoint" />
          </mxGeometry>
        </mxCell>
        <mxCell id="L_xJVtzbBdB4aBmsJh9X-35" style="rounded=0;orthogonalLoop=1;jettySize=auto;html=1;exitX=1;exitY=0.3333333333333333;exitDx=0;exitDy=0;exitPerimeter=0;entryX=0;entryY=0.5;entryDx=0;entryDy=0;endArrow=none;endFill=0;" edge="1" parent="1" source="L_xJVtzbBdB4aBmsJh9X-31" target="L_xJVtzbBdB4aBmsJh9X-9">
          <mxGeometry relative="1" as="geometry">
            <mxPoint x="160" y="563" as="sourcePoint" />
            <mxPoint x="319" y="600" as="targetPoint" />
          </mxGeometry>
        </mxCell>
        <mxCell id="L_xJVtzbBdB4aBmsJh9X-36" style="rounded=0;orthogonalLoop=1;jettySize=auto;html=1;exitX=1;exitY=0.3333333333333333;exitDx=0;exitDy=0;exitPerimeter=0;entryX=0;entryY=0.5;entryDx=0;entryDy=0;endArrow=none;endFill=0;" edge="1" parent="1" source="L_xJVtzbBdB4aBmsJh9X-31" target="L_xJVtzbBdB4aBmsJh9X-8">
          <mxGeometry relative="1" as="geometry">
            <mxPoint x="160" y="563" as="sourcePoint" />
            <mxPoint x="321" y="680" as="targetPoint" />
          </mxGeometry>
        </mxCell>
        <mxCell id="L_xJVtzbBdB4aBmsJh9X-37" style="rounded=0;orthogonalLoop=1;jettySize=auto;html=1;exitX=1;exitY=0.3333333333333333;exitDx=0;exitDy=0;exitPerimeter=0;entryX=0;entryY=0.5;entryDx=0;entryDy=0;endArrow=none;endFill=0;" edge="1" parent="1" source="L_xJVtzbBdB4aBmsJh9X-31" target="L_xJVtzbBdB4aBmsJh9X-10">
          <mxGeometry relative="1" as="geometry">
            <mxPoint x="160" y="563" as="sourcePoint" />
            <mxPoint x="321" y="750" as="targetPoint" />
          </mxGeometry>
        </mxCell>
        <mxCell id="L_xJVtzbBdB4aBmsJh9X-38" style="rounded=0;orthogonalLoop=1;jettySize=auto;html=1;exitX=1;exitY=0.3333333333333333;exitDx=0;exitDy=0;exitPerimeter=0;entryX=0;entryY=0.5;entryDx=0;entryDy=0;endArrow=none;endFill=0;" edge="1" parent="1" source="L_xJVtzbBdB4aBmsJh9X-31" target="L_xJVtzbBdB4aBmsJh9X-23">
          <mxGeometry relative="1" as="geometry">
            <mxPoint x="160" y="563" as="sourcePoint" />
            <mxPoint x="319" y="820" as="targetPoint" />
          </mxGeometry>
        </mxCell>
        <mxCell id="L_xJVtzbBdB4aBmsJh9X-39" style="rounded=0;orthogonalLoop=1;jettySize=auto;html=1;exitX=1;exitY=0.3333333333333333;exitDx=0;exitDy=0;exitPerimeter=0;entryX=0;entryY=0.5;entryDx=0;entryDy=0;endArrow=none;endFill=0;" edge="1" parent="1" source="L_xJVtzbBdB4aBmsJh9X-31" target="L_xJVtzbBdB4aBmsJh9X-24">
          <mxGeometry relative="1" as="geometry">
            <mxPoint x="160" y="563" as="sourcePoint" />
            <mxPoint x="319" y="890" as="targetPoint" />
          </mxGeometry>
        </mxCell>
        <mxCell id="L_xJVtzbBdB4aBmsJh9X-40" style="rounded=0;orthogonalLoop=1;jettySize=auto;html=1;exitX=1;exitY=0.3333333333333333;exitDx=0;exitDy=0;exitPerimeter=0;entryX=0;entryY=0.5;entryDx=0;entryDy=0;endArrow=none;endFill=0;" edge="1" parent="1" source="L_xJVtzbBdB4aBmsJh9X-31" target="L_xJVtzbBdB4aBmsJh9X-11">
          <mxGeometry relative="1" as="geometry">
            <mxPoint x="160" y="563" as="sourcePoint" />
            <mxPoint x="321" y="970" as="targetPoint" />
          </mxGeometry>
        </mxCell>
        <mxCell id="L_xJVtzbBdB4aBmsJh9X-41" style="rounded=0;orthogonalLoop=1;jettySize=auto;html=1;exitX=1;exitY=0.3333333333333333;exitDx=0;exitDy=0;exitPerimeter=0;entryX=0;entryY=0.5;entryDx=0;entryDy=0;endArrow=none;endFill=0;" edge="1" parent="1" source="L_xJVtzbBdB4aBmsJh9X-31" target="L_xJVtzbBdB4aBmsJh9X-12">
          <mxGeometry relative="1" as="geometry">
            <mxPoint x="160" y="563" as="sourcePoint" />
            <mxPoint x="321" y="1040" as="targetPoint" />
          </mxGeometry>
        </mxCell>
        <mxCell id="L_xJVtzbBdB4aBmsJh9X-42" style="rounded=0;orthogonalLoop=1;jettySize=auto;html=1;exitX=1;exitY=0.3333333333333333;exitDx=0;exitDy=0;exitPerimeter=0;entryX=0;entryY=0.5;entryDx=0;entryDy=0;endArrow=none;endFill=0;" edge="1" parent="1" source="L_xJVtzbBdB4aBmsJh9X-31" target="L_xJVtzbBdB4aBmsJh9X-17">
          <mxGeometry relative="1" as="geometry">
            <mxPoint x="160" y="563" as="sourcePoint" />
            <mxPoint x="321" y="1120" as="targetPoint" />
          </mxGeometry>
        </mxCell>
        <mxCell id="L_xJVtzbBdB4aBmsJh9X-43" style="rounded=0;orthogonalLoop=1;jettySize=auto;html=1;exitX=1;exitY=0.3333333333333333;exitDx=0;exitDy=0;exitPerimeter=0;entryX=0;entryY=0.5;entryDx=0;entryDy=0;endArrow=none;endFill=0;" edge="1" parent="1" source="L_xJVtzbBdB4aBmsJh9X-31" target="L_xJVtzbBdB4aBmsJh9X-18">
          <mxGeometry relative="1" as="geometry">
            <mxPoint x="160" y="563" as="sourcePoint" />
            <mxPoint x="321" y="1200" as="targetPoint" />
          </mxGeometry>
        </mxCell>
        <mxCell id="L_xJVtzbBdB4aBmsJh9X-44" value="Kelola &lt;i&gt;Operator&lt;/i&gt;" style="ellipse;whiteSpace=wrap;html=1;" vertex="1" parent="1">
          <mxGeometry x="300.63" y="1320" width="158.75" height="60" as="geometry" />
        </mxCell>
        <mxCell id="L_xJVtzbBdB4aBmsJh9X-45" style="rounded=0;orthogonalLoop=1;jettySize=auto;html=1;exitX=1;exitY=0.3333333333333333;exitDx=0;exitDy=0;exitPerimeter=0;entryX=0;entryY=0.5;entryDx=0;entryDy=0;endArrow=none;endFill=0;" edge="1" parent="1" source="L_xJVtzbBdB4aBmsJh9X-31" target="L_xJVtzbBdB4aBmsJh9X-44">
          <mxGeometry relative="1" as="geometry">
            <mxPoint x="160" y="563" as="sourcePoint" />
            <mxPoint x="321" y="1280" as="targetPoint" />
          </mxGeometry>
        </mxCell>
        <mxCell id="L_xJVtzbBdB4aBmsJh9X-46" value="Kontrol Penuh Biaya Dan &lt;i&gt;Promo&lt;/i&gt;" style="ellipse;whiteSpace=wrap;html=1;" vertex="1" parent="1">
          <mxGeometry x="300.63" y="1400" width="158.75" height="60" as="geometry" />
        </mxCell>
        <mxCell id="L_xJVtzbBdB4aBmsJh9X-47" value="Kelola &lt;i&gt;Banner&lt;/i&gt;" style="ellipse;whiteSpace=wrap;html=1;" vertex="1" parent="1">
          <mxGeometry x="297.5" y="1480" width="158.75" height="60" as="geometry" />
        </mxCell>
        <mxCell id="L_xJVtzbBdB4aBmsJh9X-48" value="Kelola &lt;i&gt;Platform Url&lt;/i&gt;" style="ellipse;whiteSpace=wrap;html=1;" vertex="1" parent="1">
          <mxGeometry x="297.5" y="1560" width="158.75" height="60" as="geometry" />
        </mxCell>
        <mxCell id="L_xJVtzbBdB4aBmsJh9X-49" value="Kelola Perusahaan / Toko" style="ellipse;whiteSpace=wrap;html=1;" vertex="1" parent="1">
          <mxGeometry x="293.75" y="1640" width="158.75" height="60" as="geometry" />
        </mxCell>
        <mxCell id="L_xJVtzbBdB4aBmsJh9X-50" style="rounded=0;orthogonalLoop=1;jettySize=auto;html=1;exitX=1;exitY=0.3333333333333333;exitDx=0;exitDy=0;exitPerimeter=0;entryX=0;entryY=0.5;entryDx=0;entryDy=0;endArrow=none;endFill=0;" edge="1" parent="1" source="L_xJVtzbBdB4aBmsJh9X-31" target="L_xJVtzbBdB4aBmsJh9X-46">
          <mxGeometry relative="1" as="geometry">
            <mxPoint x="160" y="563" as="sourcePoint" />
            <mxPoint x="321" y="970" as="targetPoint" />
          </mxGeometry>
        </mxCell>
        <mxCell id="L_xJVtzbBdB4aBmsJh9X-51" style="rounded=0;orthogonalLoop=1;jettySize=auto;html=1;exitX=1;exitY=0.3333333333333333;exitDx=0;exitDy=0;exitPerimeter=0;entryX=0;entryY=0.5;entryDx=0;entryDy=0;endArrow=none;endFill=0;" edge="1" parent="1" source="L_xJVtzbBdB4aBmsJh9X-31" target="L_xJVtzbBdB4aBmsJh9X-47">
          <mxGeometry relative="1" as="geometry">
            <mxPoint x="160" y="563" as="sourcePoint" />
            <mxPoint x="311" y="1440" as="targetPoint" />
          </mxGeometry>
        </mxCell>
        <mxCell id="L_xJVtzbBdB4aBmsJh9X-52" style="rounded=0;orthogonalLoop=1;jettySize=auto;html=1;exitX=1;exitY=0.3333333333333333;exitDx=0;exitDy=0;exitPerimeter=0;entryX=0;entryY=0.5;entryDx=0;entryDy=0;endArrow=none;endFill=0;" edge="1" parent="1" source="L_xJVtzbBdB4aBmsJh9X-31" target="L_xJVtzbBdB4aBmsJh9X-48">
          <mxGeometry relative="1" as="geometry">
            <mxPoint x="160" y="563" as="sourcePoint" />
            <mxPoint x="308" y="1520" as="targetPoint" />
          </mxGeometry>
        </mxCell>
        <mxCell id="L_xJVtzbBdB4aBmsJh9X-53" style="rounded=0;orthogonalLoop=1;jettySize=auto;html=1;exitX=1;exitY=0.3333333333333333;exitDx=0;exitDy=0;exitPerimeter=0;entryX=0;entryY=0.5;entryDx=0;entryDy=0;endArrow=none;endFill=0;" edge="1" parent="1" source="L_xJVtzbBdB4aBmsJh9X-31" target="L_xJVtzbBdB4aBmsJh9X-49">
          <mxGeometry relative="1" as="geometry">
            <mxPoint x="160" y="563" as="sourcePoint" />
            <mxPoint x="308" y="1600" as="targetPoint" />
          </mxGeometry>
        </mxCell>
      </root>
    </mxGraphModel>
  </diagram>
</mxfile>
